  0
SECTION
  2
HEADER
  9
$ACADVER
  1
AC1014
  9
$HANDSEED
  5
FFFF
  9
$MEASUREMENT
 70
     1
  0
ENDSEC
  0
SECTION
  2
TABLES
  0
TABLE
  2
VPORT
  5
8
330
0
100
AcDbSymbolTable
 70
     4
  0
VPORT
  5
2E
330
8
100
AcDbSymbolTableRecord
100
AcDbViewportTableRecord
  2
*ACTIVE
 70
     0
 10
0.0
 20
0.0
 11
1.0
 21
1.0
 12
210.0
 22
148.5
 13
0.0
 23
0.0
 14
10.0
 24
10.0
 15
10.0
 25
10.0
 16
0.0
 26
0.0
 36
1.0
 17
0.0
 27
0.0
 37
0.0
 40
341.0
 41
1.24
 42
50.0
 43
0.0
 44
0.0
 50
0.0
 51
0.0
 71
     0
 72
   100
 73
     1
 74
     3
 75
     0
 76
     0
 77
     0
 78
     0
  0
ENDTAB
  0
TABLE
  2
LTYPE
  5
5
330
0
100
AcDbSymbolTable
 70
     1
  0
LTYPE
  5
14
330
5
100
AcDbSymbolTableRecord
100
AcDbLinetypeTableRecord
  2
BYBLOCK
 70
     0
  3

 72
    65
 73
     0
 40
0.0
  0
LTYPE
  5
15
330
5
100
AcDbSymbolTableRecord
100
AcDbLinetypeTableRecord
  2
BYLAYER
 70
     0
  3

 72
    65
 73
     0
 40
0.0
  0
LTYPE
  5
16
330
5
100
AcDbSymbolTableRecord
100
AcDbLinetypeTableRecord
  2
CONTINUOUS
 70
     0
  3
Solid line
 72
    65
 73
     0
 40
0.0
  0
ENDTAB
  0
TABLE
  2
LAYER
  5
2
100
AcDbSymbolTable
 70
1
  0
LAYER
  5
50
100
AcDbSymbolTableRecord
100
AcDbLayerTableRecord
  2
0
 70
0
  6
CONTINUOUS
  0
ENDTAB
  0
TABLE
  2
STYLE
  5
3
330
0
100
AcDbSymbolTable
 70
     1
  0
STYLE
  5
11
330
3
100
AcDbSymbolTableRecord
100
AcDbTextStyleTableRecord
  2
STANDARD
 70
     0
 40
0.0
 41
1.0
 50
0.0
 71
     0
 42
2.5
  3
txt
  4

  0
ENDTAB
  0
TABLE
  2
VIEW
  5
6
330
0
100
AcDbSymbolTable
 70
     0
  0
ENDTAB
  0
TABLE
  2
UCS
  5
7
330
0
100
AcDbSymbolTable
 70
     0
  0
ENDTAB
  0
TABLE
  2
APPID
  5
9
330
0
100
AcDbSymbolTable
 70
     2
  0
APPID
  5
12
330
9
100
AcDbSymbolTableRecord
100
AcDbRegAppTableRecord
  2
ACAD
 70
     0
  0
ENDTAB
  0
TABLE
  2
DIMSTYLE
  5
A
330
0
100
AcDbSymbolTable
 70
     1
  0
DIMSTYLE
105
27
330
A
100
AcDbSymbolTableRecord
100
AcDbDimStyleTableRecord
  2
ISO-25
 70
     0
  3

  4

  5

  6

  7

 40
1.0
 41
2.5
 42
0.625
 43
3.75
 44
1.25
 45
0.0
 46
0.0
 47
0.0
 48
0.0
140
2.5
141
2.5
142
0.0
143
0.03937007874016
144
1.0
145
0.0
146
1.0
147
0.625
 71
     0
 72
     0
 73
     0
 74
     0
 75
     0
 76
     0
 77
     1
 78
     8
170
     0
171
     3
172
     1
173
     0
174
     0
175
     0
176
     0
177
     0
178
     0
270
     2
271
     2
272
     2
273
     2
274
     3
340
11
275
     0
280
     0
281
     0
282
     0
283
     0
284
     8
285
     0
286
     0
287
     3
288
     0
  0
ENDTAB
  0
TABLE
  2
BLOCK_RECORD
  5
1
330
0
100
AcDbSymbolTable
 70
     1
  0
BLOCK_RECORD
  5
1F
330
1
100
AcDbSymbolTableRecord
100
AcDbBlockTableRecord
  2
*MODEL_SPACE
  0
BLOCK_RECORD
  5
1B
330
1
100
AcDbSymbolTableRecord
100
AcDbBlockTableRecord
  2
*PAPER_SPACE
  0
ENDTAB
  0
ENDSEC
  0
SECTION
  2
BLOCKS
  0
BLOCK
  5
20
330
1F
100
AcDbEntity
  8
0
100
AcDbBlockBegin
  2
*MODEL_SPACE
 70
     0
 10
0.0
 20
0.0
 30
0.0
  3
*MODEL_SPACE
  1

  0
ENDBLK
  5
21
330
1F
100
AcDbEntity
  8
0
100
AcDbBlockEnd
  0
BLOCK
  5
1C
330
1B
100
AcDbEntity
 67
     1
  8
0
100
AcDbBlockBegin
  2
*PAPER_SPACE
  1

  0
ENDBLK
  5
1D
330
1B
100
AcDbEntity
 67
     1
  8
0
100
AcDbBlockEnd
  0
ENDSEC
  0
SECTION
  2
ENTITIES
  0
LWPOLYLINE
  5
100
100
AcDbEntity
  8
0
 62
7
100
AcDbPolyline
 90
2
 70
0
 10
90.132291
 20
282.367690
 30
0.0
 10
65.132291
 20
282.367690
 30
0.0
  0
LWPOLYLINE
  5
101
100
AcDbEntity
  8
0
 62
7
100
AcDbPolyline
 90
1
 70
1
 10
90.132291
 20
282.367690
 30
0.0
  0
SPLINE
  5
102
100
AcDbEntity
  8
0
 62
7
100
AcDbSpline
 70
0
 71
3
 72
31
 73
27
 74
25
 40
0.000000
 40
0.000000
 40
0.000000
 40
0.000000
 40
1.305532
 40
2.572424
 40
3.877957
 40
5.183489
 40
6.450381
 40
7.755914
 40
10.218877
 40
14.792952
 40
17.255916
 40
18.823771
 40
20.345160
 40
21.913015
 40
23.480870
 40
25.002259
 40
26.570114
 40
29.033077
 40
33.607151
 40
36.070114
 40
37.375646
 40
38.642538
 40
39.948071
 40
41.253603
 40
42.520495
 40
43.826028
 40
43.826028
 40
43.826028
 40
43.826028
 10
65.132291
 20
282.367690
 30
0.0
 10
64.692274
 20
282.298266
 30
0.0
 10
63.825264
 20
282.161470
 30
0.0
 10
62.871546
 20
281.167060
 30
0.0
 10
62.518253
 20
279.868584
 30
0.0
 10
62.871424
 20
278.564826
 30
0.0
 10
63.825743
 20
277.585951
 30
0.0
 10
65.519837
 20
277.242509
 30
0.0
 10
68.360845
 20
277.526565
 30
0.0
 10
71.081733
 20
276.891435
 30
0.0
 10
74.944021
 20
278.103043
 30
0.0
 10
74.803824
 20
275.706943
 30
0.0
 10
76.090612
 20
274.678029
 30
0.0
 10
77.632292
 20
274.213491
 30
0.0
 10
79.173972
 20
274.678029
 30
0.0
 10
80.460760
 20
275.706943
 30
0.0
 10
80.320563
 20
278.103043
 30
0.0
 10
84.182850
 20
276.891435
 30
0.0
 10
86.903737
 20
277.526564
 30
0.0
 10
89.744744
 20
277.242509
 30
0.0
 10
91.438839
 20
277.585951
 30
0.0
 10
92.393158
 20
278.564826
 30
0.0
 10
92.746328
 20
279.868584
 30
0.0
 10
92.393035
 20
281.167060
 30
0.0
 10
91.439317
 20
282.161470
 30
0.0
 10
90.572307
 20
282.298266
 30
0.0
 10
90.132291
 20
282.367690
 30
0.0
 11
65.132291
 21
282.367690
 31
0.0
 11
63.872606
 21
282.024749
 31
0.0
 11
62.977652
 21
281.128047
 31
0.0
 11
62.637170
 21
279.867695
 31
0.0
 11
62.977652
 21
278.607343
 31
0.0
 11
63.872606
 21
277.710641
 31
0.0
 11
65.132291
 21
277.367700
 31
0.0
 11
67.595254
 21
277.367700
 31
0.0
 11
72.169329
 21
277.367700
 31
0.0
 11
74.632293
 21
277.367700
 31
0.0
 11
75.042605
 21
275.854487
 31
0.0
 11
76.118781
 21
274.779094
 31
0.0
 11
77.632292
 21
274.369882
 31
0.0
 11
79.145803
 21
274.779094
 31
0.0
 11
80.221979
 21
275.854487
 31
0.0
 11
80.632291
 21
277.367700
 31
0.0
 11
83.095254
 21
277.367700
 31
0.0
 11
87.669328
 21
277.367700
 31
0.0
 11
90.132291
 21
277.367700
 31
0.0
 11
91.391976
 21
277.710641
 31
0.0
 11
92.286929
 21
278.607343
 31
0.0
 11
92.627411
 21
279.867695
 31
0.0
 11
92.286929
 21
281.128047
 31
0.0
 11
91.391976
 21
282.024749
 31
0.0
 11
90.132291
 21
282.367690
 31
0.0
  0
LWPOLYLINE
  5
103
100
AcDbEntity
  8
0
 62
7
100
AcDbPolyline
 90
4
 70
1
 10
0.132292
 20
259.867708
 30
0.0
 10
0.132292
 20
299.867708
 30
0.0
 10
155.132290
 20
299.867708
 30
0.0
 10
155.132290
 20
259.867708
 30
0.0
  0
ENDSEC
  0
SECTION
  2
OBJECTS
  0
DICTIONARY
  5
C
330
0
100
AcDbDictionary
  3
ACAD_GROUP
350
D
  3
ACAD_MLINESTYLE
350
17
  0
DICTIONARY
  5
D
330
C
100
AcDbDictionary
  0
DICTIONARY
  5
1A
330
C
100
AcDbDictionary
  0
DICTIONARY
  5
17
330
C
100
AcDbDictionary
  3
STANDARD
350
18
  0
DICTIONARY
  5
19
330
C
100
AcDbDictionary
  0
ENDSEC
  0
EOF
